<svg width="32" height="33" viewBox="0 0 32 33" fill="none" xmlns="http://www.w3.org/2000/svg">
<path fill-rule="evenodd" clip-rule="evenodd" d="M9.33335 8.50001C9.33335 4.81811 12.3181 1.83334 16 1.83334C19.6819 1.83334 22.6667 4.81811 22.6667 8.50001C22.6667 12.1819 19.6819 15.1667 16 15.1667C12.3181 15.1667 9.33335 12.1819 9.33335 8.50001ZM16 4.50001C13.7909 4.50001 12 6.29087 12 8.50001C12 10.7091 13.7909 12.5 16 12.5C18.2092 12.5 20 10.7091 20 8.50001C20 6.29087 18.2092 4.50001 16 4.50001Z" fill="white"/>
<path fill-rule="evenodd" clip-rule="evenodd" d="M2.66669 29.8333C2.66669 22.4695 8.63622 16.5 16 16.5C23.3638 16.5 29.3334 22.4695 29.3334 29.8333V31.1667H2.66669V29.8333ZM5.41588 28.5H26.5842C25.928 23.2383 21.4395 19.1667 16 19.1667C10.5605 19.1667 6.07201 23.2383 5.41588 28.5Z" fill="white"/>
</svg>
